<svg version="1.1" id="Layer_1" xmlns="http://www.w3.org/2000/svg" xmlns:xlink="http://www.w3.org/1999/xlink" x="0px" y="0px"
	 width="100%" viewBox="0 0 1024 1024" enable-background="new 0 0 1024 1024" xml:space="preserve">
<path fill="#000000" opacity="1.000000" stroke="none" 
	d="
M631.335632,872.498779 
	C603.547119,881.785767 575.391357,887.597290 546.650513,890.068237 
	C522.581665,892.137451 498.478210,891.923401 474.344147,889.551636 
	C428.087677,885.005859 384.116730,872.599792 342.847443,851.423828 
	C249.975739,803.769714 186.517029,730.328735 152.654999,631.579590 
	C142.422852,601.740356 136.686417,570.931763 134.537964,539.381348 
	C129.300385,462.466766 145.318542,390.333740 183.818054,323.650574 
	C226.083542,250.444519 286.497803,197.142517 364.174438,163.577515 
	C397.708496,149.087036 432.738861,140.025925 468.969879,135.898254 
	C495.988342,132.820160 523.080811,132.719452 550.207153,135.480377 
	C628.038635,143.402008 697.077026,172.298187 756.748657,222.757629 
	C820.175049,276.392090 861.630920,343.910400 881.227783,424.692535 
	C886.171448,445.071625 889.109131,465.765930 890.457336,486.733429 
	C896.037598,573.518860 874.967773,653.290405 826.182922,725.144775 
	C778.105103,795.957886 712.985107,845.025085 631.335632,872.498779 
M516.162415,389.343079 
	C517.128174,392.179138 518.046692,395.032288 519.066650,397.848694 
	C533.066956,436.508972 560.225098,456.999725 597.507629,461.208435 
	C612.359131,462.884979 627.703552,462.990570 642.757812,459.764801 
	C660.339355,455.997467 675.526367,448.461121 688.220581,435.419220 
	C712.924866,410.038300 719.113831,378.461334 719.248230,344.875214 
	C719.289368,334.608704 718.011719,324.339661 715.914062,314.181976 
	C712.991028,300.027527 708.738342,286.423950 700.515076,274.433136 
	C684.491821,251.069031 662.630249,237.622833 634.194824,233.811951 
	C616.168213,231.396042 598.580017,231.997330 581.340210,236.785248 
	C550.512085,245.346924 530.072266,265.779114 519.418823,295.576660 
	C508.519379,326.062317 508.677979,357.251160 516.162415,389.343079 
M354.817261,276.500000 
	C354.824280,263.836700 354.643066,251.169067 354.933044,238.512253 
	C355.045532,233.602173 353.248260,232.170547 348.553894,232.280060 
	C337.562592,232.536560 326.561371,232.361511 315.564148,232.370041 
	C308.387573,232.375595 308.375854,232.382538 308.375641,239.520233 
	C308.373596,309.335907 308.375031,379.151611 308.379517,448.967285 
	C308.379700,451.632690 308.525116,454.302246 308.418335,456.962463 
	C308.270660,460.642151 309.896851,461.720459 313.534271,461.712708 
	C363.521423,461.606293 413.508911,461.595154 463.496002,461.712982 
	C468.138489,461.723938 469.787292,459.830048 469.752289,455.512390 
	C469.688782,447.681763 469.776733,439.850037 469.765961,432.018799 
	C469.755035,424.070587 469.731598,424.027466 461.624908,424.019897 
	C428.466675,423.988953 395.308441,423.994049 362.150208,423.959839 
	C355.514099,423.953003 354.859772,423.264587 354.858185,416.964569 
	C354.846527,370.476379 354.831543,323.988190 354.817261,276.500000 
M380.500092,565.366821 
	C358.842285,565.363953 337.184479,565.354309 315.526672,565.361938 
	C308.430328,565.364441 308.393280,565.385010 308.411621,572.552490 
	C308.564758,632.356079 308.760254,692.159546 308.873627,751.963257 
	C308.897614,764.615234 308.742126,777.270203 308.443604,789.918457 
	C308.355103,793.667969 309.647522,794.780884 313.340149,794.716553 
	C324.998444,794.513184 336.662537,794.653809 348.324402,794.642212 
	C354.662964,794.635925 354.693390,794.584534 354.695892,788.204651 
	C354.719055,729.232117 354.739929,670.259521 354.770660,611.286987 
	C354.775970,601.063477 354.795837,601.021240 365.307404,601.015564 
	C397.793976,600.998108 430.280579,601.019348 462.767151,601.017029 
	C469.846954,601.016479 469.966461,600.940735 470.041779,593.738525 
	C470.118469,586.409241 469.888580,579.073059 470.124054,571.750488 
	C470.281738,566.846741 468.558594,565.205994 463.465271,565.251709 
	C436.145416,565.497375 408.822174,565.367371 380.500092,565.366821 
M592.263977,598.500000 
	C592.262573,646.128906 592.262756,693.757874 592.258850,741.386780 
	C592.257568,756.874390 592.239746,772.362000 592.241333,787.849609 
	C592.242004,794.559631 592.306946,794.631470 598.784058,794.640564 
	C609.941895,794.656189 621.099670,794.649597 632.257507,794.645813 
	C639.736938,794.643311 639.750061,794.638245 639.753784,787.337341 
	C639.783081,730.049500 639.808777,672.761597 639.831177,615.473755 
	C639.836975,600.652222 639.721069,585.829468 639.890625,571.009888 
	C639.940369,566.669189 638.394226,565.197876 634.053223,565.279785 
	C621.900574,565.509338 609.739075,565.476868 597.584717,565.299683 
	C593.675842,565.242737 592.202393,566.706055 592.249146,570.522888 
	C592.359314,579.513977 592.270569,588.507446 592.263977,598.500000 
z"/>
<path fill="#000000" opacity="1.000000" stroke="none" 
	d="
M674.118774,329.166931 
	C676.026367,345.116211 675.577148,360.574646 672.129150,375.782867 
	C667.410583,396.594757 657.261414,413.675354 636.440491,421.965546 
	C607.710632,433.404816 576.050293,421.525818 563.632202,392.654114 
	C550.540588,362.216492 550.044739,330.445160 564.420837,300.125946 
	C578.876038,269.639923 616.798096,259.461670 645.418701,277.231720 
	C658.138550,285.129272 665.628418,297.204987 670.183838,311.207153 
	C672.038574,316.908173 673.352661,322.755096 674.118774,329.166931 
z"/>
</svg>