<?xml version="1.0" standalone="no"?>
<!DOCTYPE svg PUBLIC "-//W3C//DTD SVG 20010904//EN"
 "http://www.w3.org/TR/2001/REC-SVG-20010904/DTD/svg10.dtd">
<svg version="1.0" xmlns="http://www.w3.org/2000/svg"
 width="1024.000000pt" height="1024.000000pt" viewBox="0 0 1024.000000 1024.000000"
 preserveAspectRatio="xMidYMid meet">
<metadata>
Created by potrace 1.14, written by Peter Selinger 2001-2017
</metadata>
<g transform="translate(0.000000,1024.000000) scale(0.100000,-0.100000)"
fill="#000000" stroke="none">
<path d="M4828 10125 c-2 -2 -39 -6 -83 -9 -71 -6 -104 -9 -205 -21 -757 -83
-1518 -361 -2175 -793 -113 -75 -411 -293 -425 -312 -3 -4 -36 -33 -75 -65
-353 -296 -740 -744 -992 -1150 -320 -516 -563 -1127 -667 -1680 -16 -83 -35
-198 -41 -238 -4 -27 -8 -58 -11 -70 -2 -12 -6 -51 -10 -87 -3 -36 -7 -72 -9
-80 -26 -137 -26 -853 0 -1012 2 -13 6 -48 9 -78 10 -90 42 -299 60 -390 65
-317 164 -648 266 -890 17 -41 36 -88 42 -105 18 -52 214 -446 264 -530 302
-510 625 -901 1065 -1290 100 -89 301 -244 449 -347 61 -43 289 -188 295 -188
1 0 42 -23 91 -51 144 -84 408 -210 569 -273 83 -32 159 -62 170 -66 93 -41
508 -161 639 -186 12 -2 66 -13 121 -23 197 -39 365 -61 590 -78 191 -15 719
-8 860 11 17 2 57 7 89 10 74 8 102 12 246 37 164 27 173 29 189 35 8 2 28 7
46 10 26 4 90 19 205 48 135 34 438 131 515 165 11 5 79 33 150 62 161 65 490
231 650 329 443 268 835 598 1200 1011 353 399 684 949 892 1484 80 206 184
555 218 730 5 22 9 45 11 50 12 54 44 232 49 275 3 30 8 69 11 85 3 17 7 46 9
65 5 60 18 174 22 205 8 60 10 643 2 735 -10 126 -19 219 -24 250 -2 14 -6 48
-10 75 -3 28 -9 64 -11 80 -3 17 -7 41 -9 55 -37 276 -182 800 -295 1065 -224
526 -436 885 -754 1280 -80 100 -98 120 -211 244 -132 147 -357 360 -490 466
-27 22 -57 46 -65 54 -34 33 -262 199 -380 276 -267 176 -609 355 -896 469
-171 67 -551 191 -649 210 -32 6 -65 14 -135 30 -76 18 -88 20 -245 46 -66 11
-142 23 -170 26 -27 3 -61 7 -75 9 -14 3 -52 7 -85 10 -33 3 -87 8 -120 11
-59 7 -672 14 -677 9z"/>
</g>
</svg>
